<svg xmlns="http://www.w3.org/2000/svg" xml:space="preserve" viewBox="0 0 500 500"><path d="M33.78 270.809c-2.071 0-3.848-.764-5.333-2.295-1.485-1.529-2.228-3.328-2.228-5.399V180.63c0-2.16.719-4.094 2.16-5.805 1.438-1.708 3.24-2.654 5.4-2.835 7.648-.719 15.029-1.08 22.14-1.08 13.5 0 23.625 2.679 30.375 8.032 6.75 5.356 10.125 13.118 10.125 23.288 0 11.251-3.264 19.756-9.788 25.515-6.526 5.761-16.179 8.64-28.958 8.64-2.97 0-6.885-.18-11.745-.54-.721 0-1.08.36-1.08 1.08v26.19c0 2.071-.766 3.87-2.295 5.399-1.531 1.531-3.331 2.295-5.4 2.295H33.78zm11.07-83.16v32.535c0 .631.359 1.036 1.08 1.215 3.419.452 6.75.675 9.99.675 7.29 0 12.846-1.597 16.672-4.792 3.824-3.194 5.737-7.763 5.737-13.703 0-11.969-7.471-17.955-22.41-17.955-3.24 0-6.571.226-9.99.675-.721.181-1.079.631-1.079 1.35zM121.394 185.759c-2.071 0-3.871-.764-5.4-2.295-1.532-1.529-2.295-3.329-2.295-5.4v-.81c0-2.069.763-3.869 2.295-5.4 1.529-1.529 3.329-2.295 5.4-2.295h3.51c2.069 0 3.869.766 5.4 2.295 1.529 1.531 2.295 3.331 2.295 5.4v.81c0 2.071-.766 3.871-2.295 5.4-1.532 1.532-3.331 2.295-5.4 2.295h-3.51zm0 85.05c-2.071 0-3.871-.764-5.4-2.295-1.532-1.529-2.295-3.328-2.295-5.399v-54.81c0-2.069.763-3.869 2.295-5.4 1.529-1.529 3.329-2.295 5.4-2.295h3.51c2.069 0 3.869.766 5.4 2.295 1.529 1.531 2.295 3.331 2.295 5.4v54.81c0 2.071-.766 3.87-2.295 5.399-1.532 1.531-3.331 2.295-5.4 2.295h-3.51zM163.648 270.809c-2.071 0-3.871-.764-5.4-2.295-1.532-1.529-2.295-3.328-2.295-5.399v-85.86c0-2.069.763-3.869 2.295-5.4 1.529-1.529 3.329-2.295 5.4-2.295h2.7c2.069 0 3.869.766 5.4 2.295 1.529 1.531 2.295 3.331 2.295 5.4v51.975c0 .091.044.135.135.135h.135l20.52-23.085c3.329-3.78 7.56-5.67 12.689-5.67h5.671c1.438 0 2.45.675 3.037 2.025.584 1.35.382 2.565-.607 3.645l-24.705 27.27c-.452.54-.452 1.126 0 1.755l24.975 29.7c.989 1.171 1.147 2.43.473 3.78s-1.733 2.024-3.172 2.024h-5.671c-5.13 0-9.314-1.979-12.555-5.939l-20.655-24.975c0-.088-.046-.135-.135-.135-.09 0-.135.046-.135.135v23.22c0 2.071-.766 3.87-2.295 5.399-1.532 1.531-3.331 2.295-5.4 2.295h-2.7zM251.397 242.459c-9.45-2.069-16.18-4.904-20.183-8.505-4.006-3.599-6.008-8.279-6.008-14.04 0-6.48 2.407-11.542 7.223-15.188 4.813-3.645 11.947-5.467 21.397-5.467 5.939 0 11.833.54 17.685 1.62 1.979.361 3.578 1.329 4.793 2.903 1.215 1.576 1.822 3.398 1.822 5.467 0 1.711-.675 3.084-2.025 4.118-1.35 1.036-2.881 1.329-4.59.877-5.041-1.259-10.351-1.89-15.93-1.89-8.1 0-12.15 2.251-12.15 6.75 0 2.16.764 3.961 2.295 5.4 1.529 1.441 4.139 2.565 7.83 3.375 10.349 2.072 17.437 4.86 21.263 8.37 3.824 3.51 5.737 8.64 5.737 15.39 0 6.48-2.43 11.521-7.29 15.121-4.859 3.6-11.926 5.399-21.194 5.399-6.031 0-12.196-.722-18.495-2.16-1.98-.449-3.601-1.506-4.86-3.173-1.261-1.664-1.89-3.577-1.89-5.737 0-1.708.696-3.015 2.093-3.915 1.394-.898 2.902-1.124 4.522-.675 5.849 1.62 11.384 2.431 16.604 2.431 8.188 0 12.285-2.431 12.285-7.291 0-2.339-.789-4.185-2.362-5.535-1.575-1.35-4.434-2.565-8.572-3.645zM299.861 252.584l30.51-38.61c0-.089.044-.135.135-.135 0-.088-.046-.135-.135-.135h-28.08c-1.802 0-3.331-.652-4.59-1.958-1.262-1.304-1.89-2.856-1.89-4.658 0-1.799.628-3.329 1.89-4.59 1.259-1.259 2.788-1.89 4.59-1.89h43.74c1.799 0 3.328.631 4.59 1.89 1.26 1.261 1.89 2.791 1.89 4.59 0 4.32-1.35 8.235-4.05 11.745l-30.51 38.609c0 .092-.047.136-.135.136 0 .091.044.135.135.135h28.08c1.799 0 3.328.654 4.59 1.958 1.26 1.305 1.89 2.857 1.89 4.657 0 1.802-.63 3.331-1.89 4.59-1.262 1.262-2.791 1.89-4.59 1.89h-43.74c-1.802 0-3.331-.628-4.59-1.89-1.262-1.259-1.89-2.788-1.89-4.59.001-4.318 1.35-8.234 4.05-11.744zM382.886 185.759c-2.071 0-3.87-.764-5.399-2.295-1.531-1.529-2.295-3.329-2.295-5.4v-.81c0-2.069.764-3.869 2.295-5.4 1.529-1.529 3.328-2.295 5.399-2.295h3.511c2.069 0 3.868.766 5.399 2.295 1.529 1.531 2.295 3.331 2.295 5.4v.81c0 2.071-.766 3.871-2.295 5.4-1.531 1.532-3.33 2.295-5.399 2.295h-3.511zm0 85.05c-2.071 0-3.87-.764-5.399-2.295-1.531-1.529-2.295-3.328-2.295-5.399v-54.81c0-2.069.764-3.869 2.295-5.4 1.529-1.529 3.328-2.295 5.399-2.295h3.511c2.069 0 3.868.766 5.399 2.295 1.529 1.531 2.295 3.331 2.295 5.4v54.81c0 2.071-.766 3.87-2.295 5.399-1.531 1.531-3.33 2.295-5.399 2.295h-3.511zM440.936 242.459c-9.45-2.069-16.18-4.904-20.183-8.505-4.006-3.599-6.008-8.279-6.008-14.04 0-6.48 2.407-11.542 7.223-15.188 4.813-3.645 11.947-5.467 21.397-5.467 5.939 0 11.833.54 17.685 1.62 1.979.361 3.578 1.329 4.793 2.903 1.215 1.576 1.822 3.398 1.822 5.467 0 1.711-.675 3.084-2.025 4.118-1.35 1.036-2.881 1.329-4.59.877-5.041-1.259-10.351-1.89-15.93-1.89-8.1 0-12.15 2.251-12.15 6.75 0 2.16.764 3.961 2.295 5.4 1.529 1.441 4.139 2.565 7.83 3.375 10.349 2.072 17.437 4.86 21.263 8.37 3.824 3.51 5.737 8.64 5.737 15.39 0 6.48-2.43 11.521-7.29 15.121-4.859 3.6-11.926 5.399-21.194 5.399-6.031 0-12.196-.722-18.495-2.16-1.98-.449-3.601-1.506-4.86-3.173-1.261-1.664-1.89-3.577-1.89-5.737 0-1.708.696-3.015 2.093-3.915 1.394-.898 2.902-1.124 4.522-.675 5.849 1.62 11.384 2.431 16.604 2.431 8.188 0 12.285-2.431 12.285-7.291 0-2.339-.789-4.185-2.362-5.535-1.576-1.35-4.435-2.565-8.572-3.645zM22.718 322.502c-.317.316-.703.475-1.159.475s-.842-.158-1.159-.475a1.575 1.575 0 0 1-.475-1.159v-24.472c0-.457.158-.842.475-1.16.316-.316.703-.475 1.159-.475s.842.158 1.159.475c.316.318.475.703.475 1.16v24.472c0 .456-.159.843-.475 1.159zM33.016 322.521a1.442 1.442 0 0 1-1.083.456c-.431 0-.792-.152-1.083-.456a1.485 1.485 0 0 1-.437-1.063V304.66c0-.404.139-.746.418-1.025a1.393 1.393 0 0 1 1.026-.418c.405 0 .747.139 1.026.418s.418.621.418 1.025v2.926c0 .026.013.039.038.039.051 0 .076-.025.076-.076.76-1.267 1.83-2.286 3.211-3.059 1.38-.773 2.932-1.197 4.655-1.273.354-.025.659.089.912.342.253.254.38.558.38.912 0 .33-.12.621-.361.874a1.317 1.317 0 0 1-.893.418c-2.508.102-4.446.83-5.814 2.185-1.368 1.355-2.052 3.25-2.052 5.682v7.828c0 .404-.146.759-.437 1.063zM52.414 323.356c-1.723 0-3.129-.544-4.218-1.634-1.09-1.089-1.634-2.533-1.634-4.332 0-2.103.836-3.787 2.508-5.055 1.672-1.266 4.344-1.899 8.018-1.899h1.216c.278 0 .525.108.741.323s.323.463.323.74v-2.09c0-1.545-.355-2.627-1.064-3.248-.709-.621-1.963-.932-3.762-.932-1.748 0-3.635.33-5.662.988a.89.89 0 0 1-.836-.114c-.253-.177-.38-.431-.38-.76 0-.887.418-1.456 1.254-1.71a20.518 20.518 0 0 1 5.624-.799c2.913 0 4.934.533 6.061 1.597 1.127 1.063 1.691 2.978 1.691 5.737v11.438c0 .38-.133.703-.399.97a1.318 1.318 0 0 1-.969.398c-.38 0-.709-.133-.988-.398a1.292 1.292 0 0 1-.418-.97l-.038-1.976c0-.025-.013-.038-.038-.038-.051 0-.076.025-.076.075-1.495 2.461-3.813 3.689-6.954 3.689zm6.954-11.856c0 .279-.108.52-.323.723s-.462.304-.741.304h-1.216c-2.508 0-4.402.405-5.681 1.216-1.28.812-1.919 1.951-1.919 3.42 0 1.141.323 2.059.969 2.756s1.501 1.045 2.565 1.045c1.824 0 3.337-.608 4.541-1.824 1.203-1.217 1.805-2.824 1.805-4.826V311.5zm-3.648-15.693c.734-1.064 1.735-1.596 3.002-1.596.38 0 .652.178.817.531.165.355.12.672-.133.95l-3.154 3.763c-.608.734-1.394 1.102-2.356 1.102a.7.7 0 0 1-.665-.398c-.139-.267-.121-.525.057-.779l2.432-3.573zM70.293 322.559a1.46 1.46 0 0 1-1.045.418c-.405 0-.748-.139-1.026-.418a1.392 1.392 0 0 1-.418-1.025v-16.949c0-.379.133-.703.399-.969s.589-.398.969-.398.709.133.988.398c.278.266.418.59.418.969v1.559c0 .025.012.038.038.038.025 0 .05-.013.076-.038 1.824-2.204 3.99-3.307 6.498-3.307 2.305 0 3.977.646 5.016 1.938 1.039 1.292 1.558 3.433 1.558 6.423v10.336c0 .404-.133.747-.399 1.025-.266.279-.602.418-1.007.418s-.748-.139-1.026-.418a1.392 1.392 0 0 1-.418-1.025v-9.957c0-2.508-.342-4.211-1.026-5.111-.684-.898-1.837-1.348-3.458-1.348-1.317 0-2.597.613-3.838 1.842-1.242 1.229-1.862 2.49-1.862 3.781v10.793c0 .404-.146.746-.437 1.025zM93.872 322.521l-6.65-17.86a1.02 1.02 0 0 1 .133-.988c.215-.303.513-.455.893-.455.456 0 .868.133 1.235.398s.627.615.779 1.045l5.206 14.782c0 .026.012.038.038.038.051 0 .076-.012.076-.038l5.738-14.858c.152-.404.412-.734.779-.987.367-.253.779-.38 1.235-.38a.92.92 0 0 1 .817.437c.19.292.222.603.095.931l-10.45 25.385a2.31 2.31 0 0 1-.817.988 2.136 2.136 0 0 1-1.235.379c-.355 0-.621-.146-.798-.437a1.005 1.005 0 0 1-.076-.931l3.002-6.84a.842.842 0 0 0 0-.609zM108.54 306.256a1.102 1.102 0 0 1-1.14-1.138 1.103 1.103 0 0 1 1.14-1.14h2.774c.228 0 .342-.113.342-.342v-5.434c0-.406.139-.748.418-1.026.278-.278.62-.419 1.026-.419a1.4 1.4 0 0 1 1.026.419c.278.278.418.62.418 1.026v5.434c0 .229.114.342.342.342h5.7a1.105 1.105 0 0 1 1.14 1.14c0 .329-.108.602-.323.816s-.488.322-.817.322h-5.7c-.228 0-.342.115-.342.343v10.032c0 1.824.241 3.021.722 3.591.481.569 1.406.854 2.774.854.811 0 1.482-.063 2.014-.189a1.01 1.01 0 0 1 .779.171.77.77 0 0 1 .361.665c0 .355-.108.672-.323.949a1.245 1.245 0 0 1-.817.494c-.659.127-1.495.19-2.508.19-2.229 0-3.769-.462-4.617-1.387-.849-.925-1.273-2.616-1.273-5.073v-10.298c0-.228-.114-.343-.342-.343h-2.774zM133.62 323.356c-2.204 0-3.819-.608-4.845-1.823-1.026-1.217-1.539-3.23-1.539-6.043v-10.83c0-.404.139-.746.418-1.025.278-.279.62-.418 1.026-.418.405 0 .741.139 1.007.418.266.279.399.621.399 1.025v10.45c0 2.28.342 3.845 1.026 4.693s1.773 1.272 3.268 1.272c1.368 0 2.66-.588 3.876-1.767 1.216-1.179 1.824-2.464 1.824-3.856V304.66c0-.404.146-.746.437-1.025.291-.279.64-.418 1.045-.418s.747.139 1.026.418c.278.279.418.621.418 1.025v16.948c0 .38-.133.703-.399.97-.266.266-.589.398-.969.398s-.709-.133-.988-.398a1.292 1.292 0 0 1-.418-.97v-1.558c0-.025-.013-.038-.038-.038-.026 0-.051.013-.076.038-1.748 2.204-3.914 3.306-6.498 3.306zm-.495-27.626c.709-1.013 1.646-1.52 2.812-1.52.354 0 .608.17.76.513.152.342.114.64-.114.894l-3.344 3.951c-.532.659-1.242.988-2.128.988a.639.639 0 0 1-.608-.361.644.644 0 0 1 .038-.703l2.584-3.762zm6.765 0c.709-1.013 1.646-1.52 2.812-1.52.354 0 .608.17.76.513.152.342.114.64-.114.894l-3.306 3.951c-.532.659-1.241.988-2.128.988a.639.639 0 0 1-.608-.361.644.644 0 0 1 .038-.703l2.546-3.762zM160.637 322.559c-.279.279-.621.418-1.026.418s-.748-.139-1.026-.418a1.392 1.392 0 0 1-.418-1.025V295.92c0-.404.139-.746.418-1.025.278-.278.621-.418 1.026-.418s.747.14 1.026.418c.279.279.418.621.418 1.025v16.074c0 .025.012.039.038.039l.076-.039 8.208-7.562c.861-.811 1.9-1.216 3.116-1.216.329 0 .551.152.665.455.114.305.057.559-.171.761l-8.816 8.056c-.152.152-.165.305-.038.456l8.968 8.778c.202.203.24.463.114.779-.127.316-.342.475-.646.475-1.191 0-2.204-.418-3.04-1.254l-8.36-8.284c-.025-.024-.051-.038-.076-.038s-.038.014-.038.038v8.095c0 .405-.139.747-.418 1.026zM192.215 320.658c-1.596 1.799-3.813 2.698-6.65 2.698s-5.054-.899-6.65-2.698-2.394-4.318-2.394-7.562.798-5.763 2.394-7.562c1.596-1.799 3.813-2.699 6.65-2.699s5.054.9 6.65 2.699 2.394 4.318 2.394 7.562-.798 5.763-2.394 7.562zm-.57-7.561c0-5.32-2.027-7.979-6.08-7.979-4.054 0-6.08 2.659-6.08 7.979 0 5.319 2.026 7.979 6.08 7.979 4.053 0 6.08-2.66 6.08-7.979zm-11.286-16.72c0-.381.139-.709.418-.988s.608-.418.988-.418.709.139.988.418c.278.279.418.607.418.988v2.014c0 .38-.14.709-.418.988a1.35 1.35 0 0 1-.988.418c-.38 0-.709-.139-.988-.418s-.418-.608-.418-.988v-2.014zm7.6 0c0-.381.139-.709.418-.988.278-.279.608-.418.988-.418s.709.139.988.418c.278.279.418.607.418.988v2.014c0 .38-.14.709-.418.988a1.35 1.35 0 0 1-.988.418 1.35 1.35 0 0 1-.988-.418 1.35 1.35 0 0 1-.418-.988v-2.014zM199.663 319.785l10.488-14.175v-.075c0-.025-.014-.039-.038-.039h-9.994c-.33 0-.603-.107-.817-.322-.216-.215-.323-.488-.323-.817s.107-.602.323-.817c.215-.215.487-.322.817-.322h12.388c.329 0 .602.107.817.322.215.216.322.488.322.817 0 .761-.228 1.444-.684 2.052l-10.488 14.174v.076c0 .025.013.039.038.039h9.994c.329 0 .602.107.817.322.215.215.322.488.322.816 0 .33-.107.603-.322.817a1.106 1.106 0 0 1-.817.323h-12.388a1.102 1.102 0 0 1-1.14-1.14c.001-.76.229-1.443.685-2.051zM233.711 320.658c-1.596 1.799-3.813 2.698-6.649 2.698-2.838 0-5.055-.899-6.65-2.698s-2.395-4.318-2.395-7.562.799-5.763 2.395-7.562 3.813-2.699 6.65-2.699 5.054.9 6.649 2.699 2.395 4.318 2.395 7.562-.799 5.763-2.395 7.562zm-.57-7.561c0-5.32-2.026-7.979-6.079-7.979-4.054 0-6.08 2.659-6.08 7.979 0 5.319 2.026 7.979 6.08 7.979 4.052 0 6.079-2.66 6.079-7.979zm-11.286-16.72c0-.381.139-.709.418-.988.278-.279.607-.418.987-.418s.709.139.988.418c.278.279.418.607.418.988v2.014c0 .38-.14.709-.418.988-.279.279-.608.418-.988.418s-.709-.139-.987-.418a1.35 1.35 0 0 1-.418-.988v-2.014zm7.6 0c0-.381.139-.709.418-.988.278-.279.608-.418.988-.418s.709.139.987.418c.279.279.418.607.418.988v2.014c0 .38-.139.709-.418.988-.278.279-.607.418-.987.418s-.71-.139-.988-.418a1.35 1.35 0 0 1-.418-.988v-2.014zM246.745 314.123c-2.458-.583-4.212-1.336-5.263-2.262-1.052-.924-1.577-2.121-1.577-3.591 0-1.672.627-2.995 1.881-3.971s3.046-1.464 5.377-1.464c1.748 0 3.482.229 5.206.685.785.203 1.178.722 1.178 1.558 0 .305-.114.532-.342.685-.229.151-.494.19-.798.114a17.208 17.208 0 0 0-5.017-.76c-3.04 0-4.56.975-4.56 2.926 0 .861.304 1.576.912 2.146.607.57 1.71 1.033 3.306 1.387 2.736.608 4.617 1.381 5.644 2.318 1.025.938 1.539 2.28 1.539 4.027 0 1.698-.653 3.028-1.957 3.99-1.306.963-3.148 1.444-5.529 1.444-1.85 0-3.61-.278-5.282-.836-.785-.253-1.178-.798-1.178-1.634 0-.279.126-.5.38-.665a.856.856 0 0 1 .798-.095 13.97 13.97 0 0 0 5.054.949c3.192 0 4.788-1.051 4.788-3.154 0-.911-.322-1.672-.969-2.279-.646-.606-1.843-1.113-3.591-1.518zM265.251 314.123c-2.458-.583-4.212-1.336-5.263-2.262-1.052-.924-1.577-2.121-1.577-3.591 0-1.672.627-2.995 1.881-3.971s3.046-1.464 5.377-1.464c1.748 0 3.482.229 5.206.685.785.203 1.178.722 1.178 1.558 0 .305-.114.532-.342.685-.229.151-.494.19-.798.114a17.208 17.208 0 0 0-5.017-.76c-3.04 0-4.56.975-4.56 2.926 0 .861.304 1.576.912 2.146.607.57 1.71 1.033 3.306 1.387 2.736.608 4.617 1.381 5.644 2.318 1.025.938 1.539 2.28 1.539 4.027 0 1.698-.653 3.028-1.957 3.99-1.306.963-3.148 1.444-5.529 1.444-1.85 0-3.61-.278-5.282-.836-.785-.253-1.178-.798-1.178-1.634 0-.279.126-.5.38-.665a.856.856 0 0 1 .798-.095 13.97 13.97 0 0 0 5.054.949c3.192 0 4.788-1.051 4.788-3.154 0-.911-.322-1.672-.969-2.279-.646-.606-1.843-1.113-3.591-1.518zM286.074 323.356c-3.115 0-5.484-.854-7.105-2.565-1.622-1.709-2.433-4.274-2.433-7.694 0-3.521.779-6.112 2.338-7.771 1.558-1.66 3.691-2.49 6.402-2.49 4.99 0 7.639 2.952 7.942 8.854a1.924 1.924 0 0 1-.627 1.539 2.22 2.22 0 0 1-1.577.627h-11.248c-.203 0-.304.114-.304.343.228 4.635 2.521 6.953 6.878 6.953 1.443 0 2.926-.266 4.445-.798a.86.86 0 0 1 .799.095c.253.166.38.399.38.703 0 .861-.394 1.394-1.179 1.596-1.62.405-3.19.608-4.711.608zm-.798-18.315c-3.521 0-5.447 2.09-5.775 6.27 0 .203.113.305.342.305h10.222c.202 0 .304-.102.304-.305-.152-4.18-1.849-6.27-5.093-6.27zm-.303-9.234c.734-1.064 1.735-1.596 3.002-1.596.38 0 .652.178.817.531.164.355.119.672-.134.95l-3.153 3.763c-.608.734-1.394 1.102-2.356 1.102a.7.7 0 0 1-.665-.398c-.14-.267-.12-.525.058-.779l2.431-3.573zM304.313 322.977c-2.306 0-4.161-.893-5.566-2.68-1.406-1.785-2.109-4.274-2.109-7.467 0-3.369.703-5.877 2.109-7.523 1.405-1.646 3.261-2.471 5.566-2.471 2.559 0 4.648 1.053 6.271 3.154.024.025.05.038.076.038.024 0 .037-.013.037-.038l.038-1.406c0-.379.134-.703.399-.969s.589-.398.969-.398.703.133.969.398c.267.266.399.59.399.969v17.252c0 3.42-.735 5.922-2.204 7.506-1.47 1.582-3.775 2.375-6.916 2.375-1.571 0-3.015-.166-4.332-.494-.811-.203-1.216-.735-1.216-1.596 0-.305.12-.551.361-.741.24-.19.5-.235.778-.134 1.419.457 2.889.685 4.408.685 2.204 0 3.794-.583 4.77-1.748.975-1.165 1.463-3.078 1.463-5.737v-1.863c0-.024-.014-.037-.038-.037-.025 0-.051.013-.076.037-1.545 1.925-3.597 2.888-6.156 2.888zm.761-17.86c-3.674 0-5.511 2.57-5.511 7.713 0 2.56.487 4.51 1.463 5.853s2.324 2.015 4.048 2.015c1.469 0 2.755-.545 3.856-1.635 1.103-1.089 1.653-2.395 1.653-3.914v-4.408c0-1.52-.551-2.836-1.653-3.951-1.101-1.116-2.387-1.673-3.856-1.673zM327.379 323.356c-3.115 0-5.484-.854-7.105-2.565-1.622-1.709-2.433-4.274-2.433-7.694 0-3.521.779-6.112 2.338-7.771 1.558-1.66 3.691-2.49 6.402-2.49 4.99 0 7.639 2.952 7.942 8.854a1.924 1.924 0 0 1-.627 1.539 2.22 2.22 0 0 1-1.577.627h-11.248c-.203 0-.304.114-.304.343.228 4.635 2.521 6.953 6.878 6.953 1.443 0 2.926-.266 4.445-.798a.86.86 0 0 1 .799.095c.253.166.38.399.38.703 0 .861-.394 1.394-1.179 1.596-1.62.405-3.191.608-4.711.608zm-.798-18.315c-3.521 0-5.447 2.09-5.775 6.27 0 .203.113.305.342.305h10.222c.202 0 .304-.102.304-.305-.153-4.18-1.85-6.27-5.093-6.27zM341.743 322.559a1.394 1.394 0 0 1-1.025.418c-.406 0-.748-.139-1.026-.418a1.392 1.392 0 0 1-.418-1.025V295.92c0-.404.139-.746.418-1.025.278-.278.62-.418 1.026-.418.404 0 .746.14 1.025.418.278.279.418.621.418 1.025v16.074c0 .025.013.039.038.039l.076-.039 8.208-7.562c.861-.811 1.9-1.216 3.116-1.216.329 0 .551.152.665.455.113.305.057.559-.171.761l-8.816 8.056c-.152.152-.165.305-.038.456l8.968 8.778c.203.203.241.463.114.779s-.342.475-.646.475c-1.191 0-2.204-.418-3.04-1.254l-8.36-8.284c-.025-.024-.051-.038-.076-.038s-.038.014-.038.038v8.095c0 .405-.14.747-.418 1.026zM361.654 322.559a1.394 1.394 0 0 1-1.025.418c-.406 0-.755-.139-1.046-.418a1.365 1.365 0 0 1-.437-1.025V295.92c0-.404.146-.746.437-1.025.291-.278.64-.418 1.046-.418.404 0 .746.14 1.025.418.278.279.418.621.418 1.025v10.261c0 .025.013.038.038.038s.051-.013.076-.038c1.824-2.229 3.938-3.345 6.346-3.345 2.305 0 3.978.641 5.017 1.92 1.038 1.279 1.558 3.426 1.558 6.441v10.336c0 .404-.133.747-.399 1.025-.266.279-.602.418-1.007.418s-.747-.139-1.025-.418a1.392 1.392 0 0 1-.418-1.025v-9.843c0-2.558-.337-4.274-1.008-5.149-.671-.873-1.83-1.311-3.477-1.311-1.317 0-2.597.627-3.838 1.881s-1.862 2.541-1.862 3.857v10.564a1.4 1.4 0 0 1-.419 1.027zM388.824 323.356c-3.115 0-5.484-.854-7.105-2.565-1.622-1.709-2.433-4.274-2.433-7.694 0-3.521.779-6.112 2.338-7.771 1.558-1.66 3.691-2.49 6.402-2.49 4.99 0 7.639 2.952 7.942 8.854a1.924 1.924 0 0 1-.627 1.539 2.22 2.22 0 0 1-1.577.627h-11.248c-.203 0-.304.114-.304.343.228 4.635 2.521 6.953 6.878 6.953 1.443 0 2.926-.266 4.445-.798a.86.86 0 0 1 .799.095c.253.166.38.399.38.703 0 .861-.394 1.394-1.179 1.596-1.62.405-3.19.608-4.711.608zm-.798-18.315c-3.521 0-5.447 2.09-5.775 6.27 0 .203.113.305.342.305h10.222c.202 0 .304-.102.304-.305-.152-4.18-1.849-6.27-5.093-6.27zM400.832 319.785l10.488-14.175v-.075c0-.025-.014-.039-.038-.039h-9.994c-.33 0-.603-.107-.817-.322-.216-.215-.323-.488-.323-.817s.107-.602.323-.817c.215-.215.487-.322.817-.322h12.388c.329 0 .602.107.817.322.215.216.322.488.322.817 0 .761-.228 1.444-.684 2.052l-10.488 14.174v.076c0 .025.013.039.038.039h9.994c.329 0 .602.107.817.322.215.215.322.488.322.816 0 .33-.107.603-.322.817a1.106 1.106 0 0 1-.817.323h-12.388a1.102 1.102 0 0 1-1.14-1.14c0-.76.229-1.443.685-2.051z"/></svg>