<svg xmlns="http://www.w3.org/2000/svg" xml:space="preserve" viewBox="0 0 500 500"><path fill="#FD9928" fill-rule="evenodd" d="M250.969 16.101c22.476-.104 41.895 18.966 41.941 41.201.048 22.648-18.61 41.869-41.024 42.271-23.008.418-41.567-17.768-41.737-40.887-.184-24.52 17.023-42.472 40.82-42.585z" clip-rule="evenodd"/><path fill="#68A9EF" fill-rule="evenodd" d="M388.05 232.497c-10.22.213-17.654 8.157-17.352 18.536.282 9.432 8.455 16.973 18.206 16.79 10.204-.189 17.936-8.219 17.627-18.305-.302-9.783-8.385-17.228-18.481-17.021zM336.354 191.039c-10.219.213-17.653 8.158-17.351 18.536.281 9.432 8.455 16.973 18.206 16.79 10.203-.189 17.935-8.219 17.626-18.305-.302-9.783-8.385-17.229-18.481-17.021zM481.498 211.926c-.239-14.018-10.677-23.767-25.205-23.538-13.185.209-23.999 11.361-23.913 24.663.074 13.024 11.658 24.42 24.567 24.17 14.188-.276 24.789-11.197 24.551-25.295zM397.793 199.234c9.284.003 16.543-7.17 16.442-16.242-.112-9.428-7.207-16.171-16.963-16.122-8.976.047-15.911 7.125-15.895 16.228.016 9.325 6.941 16.133 16.416 16.136zM116.652 232.497c10.217.213 17.654 8.157 17.348 18.536-.279 9.432-8.452 16.973-18.203 16.79-10.203-.189-17.936-8.219-17.627-18.305.303-9.783 8.385-17.228 18.482-17.021zM168.348 191.039c10.217.213 17.653 8.158 17.348 18.536-.278 9.432-8.452 16.973-18.203 16.79-10.203-.189-17.935-8.219-17.627-18.305.302-9.783 8.385-17.229 18.482-17.021zM23.201 211.926c.239-14.018 10.679-23.767 25.205-23.538 13.187.209 24.001 11.361 23.917 24.663-.077 13.024-11.662 24.42-24.567 24.17-14.191-.276-24.795-11.197-24.555-25.295zM105.908 199.234c-9.284.003-16.542-7.17-16.442-16.242.109-9.428 7.204-16.171 16.962-16.122 8.976.047 15.911 7.125 15.895 16.228-.015 9.325-6.942 16.133-16.415 16.136zM426.319 144.74c8.063.002 14.365-6.226 14.278-14.104-.098-8.187-6.259-14.043-14.73-14-7.794.041-13.816 6.187-13.803 14.092.013 8.097 6.028 14.01 14.255 14.012zM77.382 144.74c-8.062.002-14.365-6.226-14.278-14.104.095-8.187 6.256-14.043 14.73-14 7.795.041 13.816 6.187 13.803 14.092-.014 8.097-6.029 14.01-14.255 14.012z" clip-rule="evenodd"/><g fill="#2B6C52" fill-rule="evenodd" clip-rule="evenodd"><path d="M240.604 350.534c-8.204-1.077-15.674-3.38-22.726-6.936-16.739-8.428-27.955-21.645-32.195-39.861-3.927-16.878-.805-33.258 6.321-48.933 3.111-6.833 7.453-12.881 11.696-19.021 5.654-8.183 12.914-14.678 21.055-20.104 4.812-3.208 9.693-6.553 15.259-8.469 1.9-.654 2.724-1.448 2.659-3.616-.178-6.085-.037-12.181-.076-18.274-.024-3.737-1.286-5.93-5.657-6.447-14.132-1.672-28.194-3.999-41.474-9.392-13.299-5.401-26.061-11.921-36.958-21.418-4.599-4.01-9.685-7.499-13.638-12.259-8.152-9.809-15.738-19.864-20.848-31.787-3.65-8.524-6.576-17.209-8.316-26.191-1.11-5.718-1.775-11.695-1.211-17.652 47.311-6.454 116.256 23.687 137.449 103.731 1.158-6.866 4.161-12.1 5.755-17.842.139-.5.191-1.041.409-1.502 2.727-5.745 5.075-11.717 8.321-17.151 3.434-5.738 6.749-11.573 10.852-16.927 17.553-22.9 40.016-38.773 67.824-46.38 11.24-3.073 22.756-5.912 34.676-5.09 3.4.234 6.79.57 10.134.854-.601 22.457-6.669 42.937-19.137 61.315-18.7 27.574-44.979 44.355-76.72 53.187-8.875 2.471-17.993 3.711-27.112 4.553-4.485.415-5.745 2.914-5.872 6.376-.251 6.861-.069 13.737-.069 20.7 6.706 2.808 13.174 5.831 18.865 10.149 6.11 4.636 11.644 9.871 16.851 15.572 7.785 8.521 13.699 18.042 17.579 28.814 4.49 12.466 7.126 25.247 4.708 38.572-3.113 17.212-11.196 31.143-26.373 40.675-4.491 2.818-9.008 5.335-13.95 7.159-4.926 1.816-9.979 3.131-15.783 3.609"/><path d="M266.931 280.422c6.615 8.911 15.176 9.85 24.97 9.874 35.297.077 70.588.018 105.88.015 22.196-.001 44.383-.012 66.579.003 6.382.008 10.443 3.539 10.608 9.133.158 5.606-4.247 9.86-10.623 9.879-25.291.069-50.581.042-75.87.049-4.704.004-9.4.004-14.21.004.021 2.126 1.742 2.804 2.8 3.861 10.278 10.307 21.075 20.137 30.774 30.96 6.982 7.795 15.229 14.176 22.213 21.889 5.989 6.618 4.044 13.886-4.442 15.874-4.049.951-7.004-1.585-9.661-4.114-7.217-6.857-14.311-13.84-21.794-21.1 0 7.971.017 15.863-.004 23.758-.021 8.059-2.668 10.656-10.74 10.609-5.379-.031-7.759-3.306-7.759-10.602 0-13.462-.101-26.922.058-40.377.032-2.99-.865-5.075-2.985-7.109-7.206-6.937-14.337-13.958-21.315-21.125-1.972-2.032-3.996-2.588-6.701-2.577-23.648.096-47.301.056-71.022.056-.511 1.933 1.344 2.357 2.21 3.229 33.543 33.608 67.139 67.165 100.707 100.74 5.257 5.257 5.612 10.358 1.165 14.731-3.821 3.758-9.575 3.239-14.369-1.554-10.257-10.268-20.412-20.64-31.635-32 0 9.063.116 16.724-.026 24.388-.155 7.987-7.26 12.64-13.796 9.098-3.274-1.771-4.857-4.509-4.815-8.452.149-13.1.048-26.204.048-39.304 0-1.975.032-3.749-1.674-5.407-15.905-15.467-31.698-31.045-47.54-46.573-.212-.207-.643-.193-1.594-.451 0 6.794-.017 13.415.006 20.042.047 15.456.175 30.907.111 46.361-.017 3.455 1.11 5.675 3.746 8.153 6.701 6.287 13.077 12.932 19.189 19.865 6.685 7.588 15.203 13.473 21.995 21.067 2.832 3.166 6.148 6.258 7.827 10.015 1.743 3.908-.632 7.944-3.884 10.419-3.529 2.686-7.61 2.361-10.921-.79-5.532-5.267-11.569-10.195-16.155-16.211-6.085-7.981-15.204-12.555-21.729-20.442v39.802c0 1.817.096 3.638-.016 5.45-.473 7.819-4.703 12.564-10.915 12.334-6.071-.224-10.402-5.572-10.418-12.956-.032-12.918-.024-25.835-.032-38.75v-5.439c-11.997 11.729-23.683 23.172-35.387 34.596-6.151 5.999-12.914 5.143-16.304-1.891-2.219-4.604.313-8.316 2.888-11.051 12.26-13.021 24.426-26.209 37.64-38.221 8.667-7.882 12.081-16.185 11.42-27.892-1.021-17.946-.269-35.99-1.473-54.893-13.045 13.353-25.657 27.171-39.324 39.854-6.659 6.181-9.231 12.439-8.639 21.253.678 10.143.173 20.364.136 30.555-.017 4.931-2.31 8.329-7.14 9.671-4.429 1.23-7.617-.799-10.418-4.089-1.772-2.081-1.318-4.458-1.363-6.706-.146-7.77-.056-15.547-.056-23.646-9.666 9.528-19.064 18.782-28.452 28.048-1.552 1.536-3.018 3.156-4.607 4.656-4.811 4.529-10.468 4.867-14.483.924-3.985-3.922-3.709-9.77.922-14.46 7.671-7.763 15.479-15.392 23.196-23.108 26.105-26.113 52.195-52.248 78.303-78.358.611-.611 1.368-1.079 1.647-2.691-11.534 0-23.068-.01-34.603.003-12.01.012-24.02.11-36.027.021-2.684-.021-4.634.588-6.656 2.582-9.068 8.944-15.953 19.832-25.42 28.399-1.613 1.462-1.151 3.328-1.156 5.085-.03 12.005.014 24.009-.016 36.017-.019 6.771-3.326 10.722-8.859 10.729-5.101.007-8.94-4.509-8.989-10.723-.053-7.068-.013-14.14-1.121-22.149-4.246 4.535-8.481 9.074-12.746 13.587-1.998 2.118-3.996 4.236-6.09 6.255-4.533 4.368-9.634 4.677-13.466.902-3.525-3.476-3.866-9.758.149-13.605 15.849-15.168 30.466-31.607 47.263-45.82 3.458-2.928 5.968-6.976 9.504-11.214-14.651 0-28.56.003-42.473 0-16.192-.001-32.387.003-48.579-.015-7.559-.011-11.042-3.239-11.019-10.127.021-5.646 4.225-8.933 11.62-8.938 46.022-.006 92.048.093 138.07-.035 13.243-.034 26.534 1.096 39.723-.749 7.129-.993 12.683-2.884 17.5-9.104l30.644.023z"/></g></svg>